<svg width="50" height="51" viewBox="0 0 50 51" fill="none" xmlns="http://www.w3.org/2000/svg">
<rect x="4.16675" y="4.29462" width="41.6667" height="41.6667" rx="4" stroke="#43506E" stroke-width="3"/>
<path d="M37.5 18.8779V14.6279C37.5 13.5234 36.6046 12.6279 35.5 12.6279H14.5C13.3954 12.6279 12.5 13.5234 12.5 14.6279V35.6279C12.5 36.7325 13.3954 37.6279 14.5 37.6279H35.5C36.6046 37.6279 37.5 36.7325 37.5 35.6279V31.3779" stroke="#43506E" stroke-width="3" stroke-linecap="round" stroke-linejoin="round"/>
<path d="M28.125 25.1279C28.125 23.402 26.7259 22.0029 25 22.0029C23.2741 22.0029 21.875 23.402 21.875 25.1279C21.875 26.8538 23.2741 28.2529 25 28.2529C26.7259 28.2529 28.125 26.8538 28.125 25.1279Z" stroke="#43506E" stroke-width="3"/>
<path d="M28.125 25.1279H37.5" stroke="#43506E" stroke-width="3" stroke-linecap="round" stroke-linejoin="round"/>
</svg>
