<svg width="18" height="19" viewBox="0 0 18 19" fill="none" xmlns="http://www.w3.org/2000/svg">
<mask id="mask0_29_1051" style="mask-type:luminance" maskUnits="userSpaceOnUse" x="0" y="0" width="18" height="19">
<path d="M18 0.5L0 0.5L0 18.5L18 18.5L18 0.5Z" fill="white"/>
</mask>
<g mask="url(#mask0_29_1051)">
<path d="M0 9.5C2.68969e-09 11.2801 0.52787 13.0201 1.51685 14.5002C2.50583 15.9802 3.91151 17.1338 5.55612 17.815C7.20073 18.4961 9.0104 18.6743 10.7563 18.327C12.5022 17.9797 14.1059 17.1225 15.3646 15.8638C16.6232 14.6051 17.4804 13.0014 17.8276 11.2555C18.1748 9.50965 17.9965 7.70003 17.3153 6.05551C16.634 4.41098 15.4803 3.0054 14.0002 2.01653C12.52 1.02766 10.7799 0.499902 8.99975 0.5C6.61283 0.500131 4.3237 1.4484 2.63594 3.13621C0.94817 4.82402 -3.60658e-09 7.11313 0 9.5ZM12 9.5C12.0005 10.049 11.7998 10.5791 11.436 10.9902C11.2178 11.2376 11.0055 11.4681 10.8531 11.62L8.73506 13.7746C8.66949 13.8496 8.58965 13.9108 8.5002 13.9546C8.41074 13.9984 8.31346 14.0239 8.21403 14.0297C8.1146 14.0355 8.01501 14.0214 7.92108 13.9883C7.82714 13.9552 7.74074 13.9037 7.66692 13.8369C7.5931 13.77 7.53333 13.6891 7.4911 13.5989C7.44887 13.5087 7.42503 13.411 7.42098 13.3115C7.41692 13.212 7.43272 13.1126 7.46746 13.0193C7.5022 12.926 7.55519 12.8405 7.62332 12.7678C7.63668 12.753 7.65103 12.7386 7.66587 12.7248L9.78742 10.5652C9.92793 10.4242 10.1184 10.2139 10.3124 9.99574C10.4333 9.8587 10.5 9.68225 10.5 9.49951C10.5 9.31676 10.4333 9.1403 10.3124 9.00327C10.1189 8.78607 9.92843 8.5758 9.79237 8.43925L7.66488 6.27472C7.59087 6.20786 7.53093 6.12691 7.48858 6.03661C7.44623 5.94631 7.42232 5.84846 7.41824 5.7488C7.41417 5.64914 7.43001 5.54968 7.46484 5.45622C7.49968 5.36276 7.5528 5.27719 7.62111 5.2045C7.68941 5.13182 7.77153 5.07349 7.86266 5.03293C7.95378 4.99237 8.05207 4.97039 8.15179 4.96828C8.25151 4.96617 8.35066 4.98397 8.44342 5.02063C8.53617 5.0573 8.62069 5.1121 8.69201 5.18182C8.70636 5.19567 8.72071 5.21002 8.73407 5.22487L10.8556 7.38395C11.004 7.53238 11.2158 7.76392 11.4325 8.00882C11.7975 8.41974 11.999 8.95038 11.9985 9.5" fill="#3B3176"/>
</g>
</svg>
