<svg width="279" height="13" viewBox="0 0 279 13" fill="none" xmlns="http://www.w3.org/2000/svg">
<path fill-rule="evenodd" clip-rule="evenodd" d="M9.29915 0.886626C9.31014 0.386372 9.73555 -0.0104893 10.2493 0.000211406C28.29 0.375946 46.316 1.09647 64.3318 1.81659C65.3417 1.85696 66.3517 1.89733 67.3615 1.93763C86.3896 2.69707 105.408 3.43451 124.442 3.74486C174.655 4.56361 224.395 2.48276 274.526 0.288974C275.12 0.262972 276.188 0.337125 276.977 0.453732C277.338 0.507101 277.782 0.587492 278.079 0.72304C278.157 0.758391 278.304 0.831956 278.438 0.965471C278.583 1.1097 278.813 1.44103 278.694 1.8838C278.597 2.2445 278.326 2.42391 278.231 2.48142C278.108 2.55625 277.981 2.60246 277.887 2.63218C269.213 5.36445 258.251 5.84226 249.11 6.24073C247.755 6.29978 246.44 6.35708 245.179 6.41972C197.411 8.79196 149.456 8.59621 101.607 8.40089C88.4202 8.34706 75.2413 8.29327 62.0765 8.29327H57.1395C86.4224 9.15492 115.711 9.83814 145.002 10.2981C147.394 10.3357 149.231 10.3538 150.109 10.3624L150.198 10.3633C150.406 10.3653 150.554 10.3668 150.629 10.3679C150.647 10.3681 150.664 10.3684 150.678 10.3687C150.683 10.3688 150.694 10.3691 150.706 10.3696C150.707 10.3697 150.712 10.3698 150.72 10.3703C150.727 10.3707 150.738 10.3714 150.75 10.3724C150.75 10.3724 150.8 10.376 150.859 10.3882C150.909 10.3997 151.102 10.4731 151.234 10.5549C151.573 11.0599 151.318 11.924 151.042 12.1048C150.966 12.1335 150.855 12.1627 150.822 12.1687C150.804 12.1715 150.774 12.1752 150.762 12.1764C150.742 12.1785 150.725 12.1794 150.719 12.1797C150.706 12.1805 150.694 12.1808 150.691 12.1809C150.681 12.1812 150.671 12.1813 150.665 12.1814C150.651 12.1815 150.633 12.1816 150.613 12.1817C150.5 12.1822 150.23 12.1822 149.785 12.1821C149.598 12.1821 149.379 12.182 149.129 12.182H119.397C119.014 12.182 118.685 11.957 118.542 11.6355C92.433 11.1094 66.3272 10.4166 40.2275 9.58904C34.2485 9.39945 28.2852 9.19799 22.323 8.99657C15.9443 8.78108 9.56693 8.56563 3.17309 8.36481C2.5546 8.34538 2.06166 8.33083 1.693 8.31994C1.59208 8.31696 1.50047 8.31425 1.41815 8.3118C1.22776 8.30612 1.08429 8.3017 0.991197 8.29831C0.946687 8.29669 0.905176 8.29502 0.874226 8.29321L0.873279 8.29315C0.865721 8.29274 0.824178 8.29044 0.780119 8.28436C0.768984 8.28283 0.727051 8.27705 0.675672 8.2641C0.65455 8.25878 0.588742 8.24192 0.510374 8.20582C0.468521 8.18528 0.368055 8.12453 0.311471 8.08197C0.228343 8.00542 0.0649704 7.77003 0.00536782 7.60646C-0.0224092 7.39326 0.0621069 7.00931 0.155486 6.85382C0.232309 6.76379 0.380329 6.64041 0.443702 6.60148C0.553063 6.54014 0.650132 6.51567 0.67363 6.50975L0.674877 6.50943C0.737722 6.49355 0.789228 6.48772 0.800995 6.48639L0.801964 6.48628C0.865666 6.47901 0.941988 6.47868 0.954608 6.47862C0.955413 6.47862 0.955958 6.47862 0.956225 6.47861C0.992642 6.47821 1.04073 6.47801 1.09845 6.47793C1.21455 6.47777 1.3813 6.4781 1.59652 6.47859C1.63704 6.47869 1.67935 6.47878 1.72344 6.47889C2.14893 6.47989 2.74048 6.48127 3.49893 6.48127H62.0765C75.2591 6.48127 88.4499 6.53509 101.644 6.58893C149.485 6.78413 197.373 6.97951 245.084 4.61008C246.367 4.54639 247.695 4.48815 249.056 4.42847C256.479 4.10296 264.885 3.73434 272.28 2.20102C222.941 4.35656 173.91 6.36372 124.41 5.5566C105.351 5.24583 86.3117 4.50747 67.2853 3.74811C66.277 3.70786 65.2687 3.66756 64.2605 3.62726C46.2403 2.90697 28.2313 2.18713 10.2095 1.81179C9.69576 1.80109 9.28816 1.38688 9.29915 0.886626ZM0.985742 6.48447C0.979417 6.4841 0.98086 6.48408 0.987517 6.48457L0.985742 6.48447ZM150.639 10.3696C150.644 10.3695 150.646 10.3695 150.642 10.3695L150.639 10.3696Z" fill="#F22969"/>
</svg>
