<?xml version="1.0" encoding="UTF-8"?>
<svg xmlns="http://www.w3.org/2000/svg" version="1.1" width="300" height="300" viewBox="0 0 300 300"><rect x="0" y="0" width="300" height="300" fill="#ffffff"/><g transform="scale(10.345)"><g transform="translate(0,0)"><path fill-rule="evenodd" d="M8 0L8 1L10 1L10 0ZM14 0L14 2L11 2L11 4L10 4L10 3L9 3L9 2L8 2L8 5L9 5L9 6L8 6L8 7L9 7L9 8L8 8L8 9L7 9L7 8L6 8L6 9L4 9L4 8L0 8L0 10L1 10L1 11L0 11L0 15L3 15L3 16L2 16L2 17L1 17L1 18L0 18L0 19L1 19L1 18L2 18L2 17L3 17L3 18L4 18L4 17L3 17L3 16L6 16L6 17L8 17L8 16L6 16L6 15L7 15L7 14L6 14L6 15L3 15L3 13L2 13L2 14L1 14L1 12L3 12L3 11L5 11L5 12L4 12L4 13L8 13L8 9L9 9L9 10L10 10L10 9L9 9L9 8L10 8L10 7L11 7L11 8L12 8L12 7L13 7L13 9L15 9L15 5L16 5L16 4L13 4L13 5L12 5L12 3L15 3L15 0ZM18 0L18 1L20 1L20 3L19 3L19 2L18 2L18 3L17 3L17 4L18 4L18 3L19 3L19 5L17 5L17 6L16 6L16 7L17 7L17 8L16 8L16 11L15 11L15 10L14 10L14 11L11 11L11 13L10 13L10 12L9 12L9 17L10 17L10 16L11 16L11 17L12 17L12 18L11 18L11 19L12 19L12 20L10 20L10 21L12 21L12 22L9 22L9 19L10 19L10 18L9 18L9 19L8 19L8 18L5 18L5 20L3 20L3 21L7 21L7 20L6 20L6 19L8 19L8 22L9 22L9 24L10 24L10 25L8 25L8 29L11 29L11 28L12 28L12 29L13 29L13 28L12 28L12 26L13 26L13 27L14 27L14 29L15 29L15 28L16 28L16 27L14 27L14 26L16 26L16 25L15 25L15 24L16 24L16 23L18 23L18 24L17 24L17 27L18 27L18 26L19 26L19 28L18 28L18 29L21 29L21 28L22 28L22 25L23 25L23 28L24 28L24 29L25 29L25 28L26 28L26 27L27 27L27 29L28 29L28 27L29 27L29 25L28 25L28 27L27 27L27 26L26 26L26 25L27 25L27 24L29 24L29 23L28 23L28 22L29 22L29 21L27 21L27 18L28 18L28 15L29 15L29 13L27 13L27 12L25 12L25 9L27 9L27 8L24 8L24 11L23 11L23 9L22 9L22 8L21 8L21 6L20 6L20 5L21 5L21 4L20 4L20 3L21 3L21 0ZM16 1L16 2L17 2L17 1ZM10 5L10 6L9 6L9 7L10 7L10 6L11 6L11 7L12 7L12 5ZM13 5L13 7L14 7L14 5ZM17 6L17 7L18 7L18 6ZM19 6L19 7L20 7L20 6ZM28 8L28 10L26 10L26 11L28 11L28 12L29 12L29 11L28 11L28 10L29 10L29 8ZM2 9L2 10L4 10L4 9ZM6 9L6 10L7 10L7 9ZM19 10L19 11L20 11L20 12L19 12L19 13L17 13L17 14L15 14L15 12L12 12L12 14L10 14L10 15L11 15L11 16L12 16L12 17L14 17L14 18L13 18L13 20L14 20L14 21L15 21L15 22L14 22L14 23L11 23L11 25L12 25L12 24L13 24L13 26L14 26L14 24L15 24L15 23L16 23L16 21L15 21L15 20L16 20L16 19L15 19L15 17L16 17L16 18L17 18L17 19L20 19L20 20L19 20L19 22L18 22L18 21L17 21L17 22L18 22L18 23L19 23L19 24L18 24L18 25L20 25L20 23L19 23L19 22L20 22L20 20L21 20L21 19L20 19L20 17L18 17L18 16L19 16L19 15L17 15L17 14L19 14L19 13L20 13L20 15L22 15L22 17L21 17L21 18L22 18L22 20L23 20L23 16L26 16L26 17L27 17L27 15L26 15L26 13L25 13L25 12L23 12L23 11L21 11L21 10ZM6 11L6 12L7 12L7 11ZM17 11L17 12L18 12L18 11ZM20 12L20 13L21 13L21 14L22 14L22 15L23 15L23 13L21 13L21 12ZM13 13L13 14L12 14L12 16L14 16L14 15L15 15L15 16L16 16L16 15L15 15L15 14L14 14L14 13ZM13 14L13 15L14 15L14 14ZM17 17L17 18L18 18L18 17ZM24 17L24 18L25 18L25 19L24 19L24 20L26 20L26 18L25 18L25 17ZM1 20L1 21L2 21L2 20ZM21 21L21 24L24 24L24 21ZM22 22L22 23L23 23L23 22ZM26 22L26 24L25 24L25 25L26 25L26 24L27 24L27 22ZM10 26L10 27L9 27L9 28L11 28L11 26ZM24 26L24 27L26 27L26 26ZM0 0L0 7L7 7L7 0ZM1 1L1 6L6 6L6 1ZM2 2L2 5L5 5L5 2ZM22 0L22 7L29 7L29 0ZM23 1L23 6L28 6L28 1ZM24 2L24 5L27 5L27 2ZM0 22L0 29L7 29L7 22ZM1 23L1 28L6 28L6 23ZM2 24L2 27L5 27L5 24Z" fill="#000000"/></g></g></svg>
