<svg width="41" height="41" viewBox="0 0 41 41" fill="none" xmlns="http://www.w3.org/2000/svg">
<g clip-path="url(#clip0_3365_692)">
<path d="M32.152 0H8.848C3.96138 0 0 3.96138 0 8.848V32.152C0 37.0386 3.96138 41 8.848 41H32.152C37.0386 41 41 37.0386 41 32.152V8.848C41 3.96138 37.0386 0 32.152 0Z" fill="white" fill-opacity="0.63"/>
<path d="M8.08496 17.3893C8.19073 17.4492 8.29116 17.5181 8.38501 17.5954C12.3577 21.5634 16.3267 25.5346 20.292 29.5099C20.528 29.7459 20.6399 29.7023 20.8479 29.4943C24.8119 25.5183 28.7824 21.5481 32.759 17.5841C32.959 17.3841 32.975 17.2789 32.759 17.0719C31.87 16.2059 30.99 15.3313 30.135 14.4323C29.867 14.1513 29.735 14.189 29.478 14.443C26.631 17.309 23.7641 20.156 20.9221 23.028C20.6131 23.34 20.4719 23.2983 20.1899 23.0143C17.3333 20.1363 14.4686 17.2647 11.5959 14.4C11.3959 14.2 11.2809 14.1291 11.0439 14.3771C10.1629 15.2961 9.25491 16.187 8.35791 17.09C8.28491 17.165 8.21596 17.2463 8.08496 17.3893Z" fill="white"/>
<path d="M8.08496 17.389C8.21596 17.246 8.28489 17.1647 8.35889 17.0887C9.25889 16.1887 10.1639 15.2948 11.0449 14.3758C11.2819 14.1278 11.3959 14.1968 11.5969 14.3988C14.4603 17.2728 17.3249 20.1443 20.1909 23.013C20.4729 23.297 20.6141 23.3387 20.9231 23.0267C23.7651 20.1547 26.632 17.3077 29.479 14.4417C29.733 14.1877 29.868 14.15 30.136 14.431C30.991 15.331 31.871 16.2046 32.76 17.0706C32.973 17.2776 32.96 17.3788 32.76 17.5828C28.7827 21.5468 24.8125 25.517 20.8491 29.493C20.6411 29.701 20.529 29.7446 20.293 29.5086C16.331 25.5293 12.362 21.5581 8.38599 17.5941C8.29178 17.5171 8.19104 17.4485 8.08496 17.389Z" fill="white"/>
</g>
<defs>
<clipPath id="clip0_3365_692">
<rect width="41" height="41" fill="white"/>
</clipPath>
</defs>
</svg>
