<svg xmlns="http://www.w3.org/2000/svg" width="53.77" height="55.027" viewBox="0 0 53.77 55.027">
  <g id="Group_834" data-name="Group 834" transform="translate(-1480.23 -5689.011)">
    <g id="Group_833" data-name="Group 833">
      <path id="Path_968" data-name="Path 968" d="M1533.992,5696.07a6.911,6.911,0,0,0-4.376-6.615,10.225,10.225,0,0,0-3.92-.441q-18.479.022-36.956.011a8.087,8.087,0,0,0-8.5,8.388q-.027,17.607,0,35.214c0,1.213.437,1.646,1.636,1.647q5.1,0,10.2,0h.795c0,.308.005.536,0,.763-.072,2.421-.136,4.842-.224,7.263a1.515,1.515,0,0,0,.666,1.57,1.454,1.454,0,0,0,1.625-.222c1.638-1.066,3.3-2.1,4.929-3.177a.8.8,0,0,1,1.044-.024c1.626,1.084,3.285,2.119,4.924,3.184a1.468,1.468,0,0,0,1.685.221,1.5,1.5,0,0,0,.622-1.522c-.072-2.421-.125-4.842-.184-7.263-.006-.247,0-.494,0-.793h13.131c1.245,0,1.683-.436,1.683-1.678q0-7.126,0-14.253v-.94h.849c2.958,0,5.915.006,8.872,0,1.041,0,1.49-.454,1.5-1.488.015-1.071,0-2.143,0-3.214C1534,5707.155,1534.005,5701.613,1533.992,5696.07Zm-30.966,42.675c-.548-.35-1.107-.685-1.639-1.059a1.586,1.586,0,0,0-1.993,0c-1.305.876-2.641,1.7-4.085,2.628q.2-6.771.4-13.135a29.878,29.878,0,0,0,4.741.72,29.194,29.194,0,0,0,4.692-.746q.17,6.325.352,13.16C1504.577,5739.735,1503.8,5739.241,1503.026,5738.745Zm17.132-41.037q.027,16.453.008,32.907v1.011h-12.28c-.021-.218-.05-.4-.055-.58-.048-1.675-.071-3.352-.15-5.027a1.691,1.691,0,0,1,.557-1.4,10.968,10.968,0,1,0-15.524.217,1.582,1.582,0,0,1,.412,1.01c-.015,1.9-.094,3.81-.153,5.8h-10.162v-.764q0-16.7,0-33.4a5.514,5.514,0,0,1,5.875-5.846h32.971C1520.127,5693.508,1520.154,5695.6,1520.158,5697.708Zm11.256,16.8a2.465,2.465,0,0,1-.034.265h-8.58c-.012-.236-.032-.461-.032-.687q0-9.05,0-18.1a4.307,4.307,0,0,1,8.137-2.071,4.428,4.428,0,0,1,.489,1.864C1531.43,5702.02,1531.416,5708.263,1531.414,5714.5Z" fill="#757575"/>
    </g>
  </g>
</svg>
