<svg xmlns="http://www.w3.org/2000/svg" width="22" height="35.356" viewBox="0 0 22 35.356">
  <g id="Group_794" data-name="Group 794" transform="translate(-1446 -5271.322)">
    <g id="X62A7B.tif">
      <g id="Group_793" data-name="Group 793">
        <g id="Group_791" data-name="Group 791">
          <path id="Path_802" data-name="Path 802" d="M1463.485,5271.322a2.952,2.952,0,0,1-.293.426q-8.475,8.484-16.965,16.953c-.336.336-.274.5.023.791q8.49,8.468,16.957,16.961c.291.292.434.307.73,0,1.232-1.266,2.478-2.519,3.758-3.736.4-.382.347-.574-.016-.935-4.08-4.055-8.134-8.136-12.222-12.182-.446-.441-.385-.641.019-1.042q6.147-6.1,12.265-12.237c.288-.287.385-.449.033-.787-1.308-1.253-2.578-2.546-3.863-3.824C1463.8,5271.607,1463.689,5271.51,1463.485,5271.322Z" fill="#f3f3f1"/>
        </g>
        <g id="Group_792" data-name="Group 792">
          <path id="Path_803" data-name="Path 803" d="M1463.485,5271.322c.2.188.319.285.426.391,1.285,1.278,2.555,2.571,3.863,3.824.352.338.255.5-.033.787q-6.138,6.114-12.265,12.237c-.4.4-.465.6-.019,1.042,4.088,4.046,8.142,8.127,12.222,12.182.363.361.417.553.016.935-1.28,1.217-2.526,2.47-3.758,3.736-.3.3-.439.289-.73,0q-8.466-8.495-16.957-16.961c-.3-.3-.359-.455-.023-.791q8.5-8.462,16.965-16.953A2.952,2.952,0,0,0,1463.485,5271.322Z" fill="#f3f3f1"/>
        </g>
      </g>
    </g>
  </g>
</svg>
