<?xml version="1.0" encoding="UTF-8"?>
<svg id="katman_1" data-name="katman 1" xmlns="http://www.w3.org/2000/svg" version="1.1" viewBox="0 0 242.79 274.99">
  <defs>
    <style>
      .cls-1 {
        fill: #c64035;
        stroke-width: 0px;
      }
    </style>
  </defs>
  <path class="cls-1" d="M225.24,0H17.54C7.87,0,0,7.87,0,17.54v207.7c0,9.67,7.87,17.55,17.54,17.55h71.36l31.91,32.2,33.02-32.2h71.4c9.67,0,17.54-7.87,17.54-17.55V17.54c0-9.67-7.87-17.54-17.54-17.54ZM239.52,225.24c0,7.87-6.41,14.28-14.28,14.28h-72.72s-31.67,30.87-31.67,30.87l-30.59-30.87h0s0,0,0,0h0s0,0,0,0H17.54c-7.87,0-14.28-6.41-14.28-14.28V17.54c0-7.87,6.41-14.28,14.28-14.28h207.7c7.87,0,14.28,6.41,14.28,14.28v207.7Z"/>
</svg>