<?xml version="1.0" encoding="UTF-8"?>
<svg id="katman_1" data-name="katman 1" xmlns="http://www.w3.org/2000/svg" version="1.1" viewBox="0 0 142.28 286">
  <defs>
    <style>
      .cls-1 {
        fill: #000;
        stroke-width: 0px;
      }
    </style>
  </defs>
  <path class="cls-1" d="M15.44,134.57c.19,4.7-.16,9.32-1.22,13.94-2.74,11.91.04,23.52,2.65,35.03,2.07,9.12,4.91,18.07,7.28,27.13.72,2.74,1.99,5.9,1.27,8.36-2,6.76,1.84,8.67,6.9,10.78,12.59,5.24,25.1,10.71,37.47,16.45,3.8,1.76,5.47.95,6.65-2.73,2.54-7.91,6.93-13.69,15.34-16.79,7.04-2.6,9.71-10.04,13.15-16.28.88-1.6,1.19-4.89,3.81-3.76,3.19,1.38.62,3.85-.2,5.62-4.2,9.08-9.66,16.84-19.7,20.56-6.83,2.53-7.22,9.91-9.79,15.46-1.07,2.3,1.9,2.72,3.43,3.32,3.25,1.29,4.41,2.94,2.76,6.5-4.2,9.05-8.19,18.2-12.05,27.4-1.42,3.38-3.1,4.07-6.51,2.55-21.01-9.38-42.07-18.65-63.19-27.77-3.75-1.62-4.24-3.4-2.58-6.96,4.13-8.86,7.92-17.87,11.85-26.82.81-1.85,1.42-4.29,4.15-3.39,4.29,1.42,4.33-1.15,4.32-4.08-.02-4.97-1.48-9.65-2.92-14.31-3.75-12.07-7.06-24.24-8.63-36.83-.91-7.32-1.16-14.62.83-21.84,1.66-6.01.87-12.15.87-18.24,0-4.48.69-8.64,5.19-10.9,4.66-2.34,8.83-.63,12.49,2.23,8.4,6.55,11.49,15.44,10.94,25.87-.48,9.24,1.5,17.16,9.41,23.5,14.11,11.32,18.62,27.18,13.01,41.9-.5,1.32-1.1,2.63-1.83,3.85-.55.93-1.49,1.42-2.59.85-1.13-.57-1.1-1.57-.77-2.61.12-.39.32-.75.44-1.14,5.48-18.53,2-30.06-13.17-41.74-7.63-5.87-8.85-14.15-8.58-22.51.27-8.36-.85-15.87-6.52-22.15-2.73-3.03-6.04-6.15-10.56-4.35-4.32,1.72-3.25,6.05-3.37,9.62-.05,1.42,0,2.85,0,4.28ZM80.92,257.4c.23-2.52-1.84-2.61-3.17-3.2-18.99-8.39-38.04-16.66-57-25.12-2.95-1.31-4.36-.81-5.57,2.11-2.55,6.21-5.04,12.48-8.14,18.42-2.51,4.8-2.04,7.14,3.38,9.35,14.89,6.07,29.46,12.88,44.25,19.2,4.62,1.97,9.64,6.68,13.85,5.01,4.2-1.66,4.61-8.55,6.81-13.08,2.05-4.2,3.79-8.56,5.6-12.7Z"/>
  <path class="cls-1" d="M142.28,108.55c0,24.45.02,48.91,0,73.36-.01,12.12-4.92,16.99-17.08,17.01-15.08.03-30.16.04-45.24-.03-1.87,0-4.94.93-5.12-1.75-.23-3.44,3.16-2.4,5.12-2.42,15.08-.1,30.16-.02,45.24-.05,9.84-.02,12.9-3,12.9-12.71.02-49.11.02-98.22-.01-147.34,0-10.06-3-12.91-13.28-12.92-22.21,0-44.43-.02-66.64,0-9.82,0-12.88,2.97-12.89,12.67-.04,25.47,0,50.95,0,76.42,0,1.63.03,3.26-.05,4.89-.07,1.5-.41,3.03-2.32,2.92-1.48-.09-1.83-1.4-1.87-2.69-.05-1.22-.04-2.44-.04-3.67,0-26.08-.03-52.17,0-78.25.01-11.42,4.98-16.39,16.41-16.42,22.82-.05,45.65-.06,68.47-.02,11.42.02,16.4,5.01,16.41,16.4.03,24.86,0,49.72,0,74.59Z"/>
  <path class="cls-1" d="M81.31,123.44c1.71,6.09-1.94,6.99-7.33,6.78-7.56-.3-7.56-.09-7.54-8.41.02-7.01.04-6.6,8.97-7.07,7.01-.37,6.18,3.88,5.91,8.7ZM73.76,118.51c-3.65-.52-3.77,1.8-3.84,4.51-.08,3.12,1.53,3.58,4.17,3.67,3.59.13,3.81-1.88,3.83-4.63.03-3.06-1.43-3.95-4.17-3.55Z"/>
  <path class="cls-1" d="M109.6,80c7.17-1.93,6.79,2.62,7.24,7.84.61,7.14-3.16,6.88-8.35,7.31-7.47.62-6.57-3.77-7-8.6-.59-6.65,2.67-7.63,8.11-6.55ZM113.03,87.41c.4-2.85-.63-4.13-3.64-4.15-3.05-.01-4.47.91-4.34,4.18.1,2.69.76,4.06,3.82,4.05,3.06-.01,4.72-.81,4.16-4.08Z"/>
  <path class="cls-1" d="M81.41,87.73c-.03,7.27-.07,6.76-8.54,7.38-7.28.53-6.09-3.8-6.56-8.3-.67-6.46,2.43-7.34,7.78-7.07,7.34.38,7.35.11,7.32,7.99ZM73.95,83.42c-2.49-.4-4.08.33-4.01,3.48.06,2.68.1,4.82,3.76,4.59,2.49-.15,4.33-.3,4.2-3.56-.11-2.66-.07-5.05-3.95-4.5Z"/>
  <path class="cls-1" d="M126.11,130.83c-.79,2.48,1.87,7.03-1.94,8.24-4.93,1.56-10.41.8-15.64.17-.83-.1-1.45-.99-1.13-1.8.25-.64,1.15-1.56,1.63-1.49,10.38,1.6,15.28-2.18,13.29-13.12-.16-.89.56-1.98,1.88-1.87,1.24.11,1.55,1.12,1.79,2.11.1.39.12.8.13,1.2.01,2.02,0,4.05,0,6.55Z"/>
  <path class="cls-1" d="M95.04,96.86c-.53-.94-.64-1.41-.91-1.56-1.3-.73-3.48.16-3.93-2.05-.18-.88.57-1.58,1.4-1.62,2.16-.11,4.91-1.23,6.28.77,1.61,2.36,1.56,7.52-.05,7.64-5.12.39-3.83,7.44-8.95,7.31-1.46-.04-.35,3.6-3.33,4.46-.61-3.4-3.53-6.52,2.31-8.88,2.78-1.12,2.42-6.5,7.19-6.07Z"/>
  <path class="cls-1" d="M117.41,70.62c2.35.65,7.02-1.84,8.17,1.67,1.6,4.88,1.04,10.41.14,15.63-.14.78-.96,1.23-1.91,1.04-.99-.2-1.31-.99-1.34-1.77-.12-2.63-.31-5.29-.12-7.9.27-3.64-1.01-5.29-4.82-4.94-2.42.22-4.87.03-7.31.02-1.31,0-2.61-.37-2.71-1.83-.11-1.59,1.26-1.88,2.53-1.9,2.23-.04,4.47-.01,7.36-.01Z"/>
  <path class="cls-1" d="M65.41,139.57c-2.24-.7-6.95,1.88-8.03-1.88-1.41-4.95-.98-10.47-.04-15.71.14-.79,1.12-1.35,1.93-.83.58.37,1.19,1.19,1.24,1.84.18,2.64.34,5.3.14,7.93-.28,3.76,1.26,5.16,4.95,4.83,2.42-.22,4.89-.02,7.33,0,1.35,0,2.56.51,2.57,1.95.02,1.56-1.36,1.84-2.64,1.86-2.24.04-4.48.01-7.46.01Z"/>
  <path class="cls-1" d="M67.15,70.55c2.48.89,8.16-1.53,8.06,1.63-.13,4.39-5.66,2.18-8.56,2-5.38-.32-5.93,2.19-5.92,6.5,0,2.75,1.6,7.95-1.62,7.86-4.13-.12-2.01-5.26-2.06-8.11-.18-11-1.28-9.78,10.09-9.89Z"/>
  <path class="cls-1" d="M100.17,114.56c.9-.22,1.17-.87,1.39-1.71.46-1.78-1.01-4.42,1.68-5.16,1.51-.41,1.89,1.43,1.73,2.54-.39,2.75,1.74,6.38-2.01,8.04-4.54,2.01-7.84-.29-7.64-5.34.12-3.03-1.44-8.55,1.38-8.58,4.03-.04,1.14,5.14,2.07,7.88.31.91.12,2.04,1.4,2.34Z"/>
  <path class="cls-1" d="M107.08,121.25c.4-2.82-.48-5.43,1.91-5.68,2.33-.25,1.72,2.3,1.77,3.74.07,2.09,1.05,2.72,2.99,2.95,4.18.48,2.78,3.67,2.65,6.11-.04.81-1.54,1.54-1.61,1.25-1.11-4.32-9.35-2.96-7.7-8.36Z"/>
  <path class="cls-1" d="M92.34,34.88c-1.02,0-1.64.08-2.23-.02-1.98-.33-5.32.93-5.28-2.22.04-3.12,3.37-1.82,5.36-2.14.59-.1,1.23-.12,1.81,0,2.37.46,6.59-1.4,6.68,1.91.11,4.27-4.43,1.57-6.34,2.47Z"/>
  <path class="cls-1" d="M89.36,125.21c-1.16-1.67-4.86.17-4.25-3.19.33-1.8,2.31-1.16,3.62-1.21,2.26-.09,4.72-.19,4.58,3.17-.08,1.92.9,4.27-1.2,5.57-1.77,1.1-3.92.73-5.9.28-.77-.17-1.5-.7-1.3-1.72.49-2.39,3.47-.55,4.44-2.9Z"/>
  <path class="cls-1" d="M77.89,102.2c.05-2.17-.1-4.58,2.84-4.51,3.01.07,3.93-1.29,3.88-4.02-.02-1.04.68-2.1,1.89-1.76.56.16,1.24,1.24,1.21,1.88-.13,3.07,2.03,7.5-4.03,7.39-1.09-.02-1.88.51-2.17,1.7-.31,1.25.21,3.43-1.86,3.19-2.12-.25-1.63-2.42-1.78-3.87Z"/>
  <path class="cls-1" d="M116.57,112.37c0,1.2.05,2.41-.02,3.61-.06,1.05-.46,2.09-1.67,2.08-1.18-.01-1.75-1.02-1.71-2.07.1-2.57-.48-4.29-3.6-4.06-1.04.08-1.88-.7-1.78-1.91.07-.91.87-1.15,1.63-1.49q7.25-3.25,7.15,3.84Z"/>
  <path class="cls-1" d="M100.66,130.23c-1.89-.23-4.73.12-4.55-1.32.32-2.48,2.32-4.64,3.13-7.23.43-1.37,2.54-1.02,3.9-.7,1.57.37,1.74,1.51.91,2.77-.53.81-2.65.92-1.16,2.57,4.21,4.67-.61,3.3-2.23,3.91Z"/>
  <path class="cls-1" d="M93.33,113.81c-.15,1.59.46,3.52-1.51,4.27-1.92.73-3.99.56-5.96,0-.91-.26-1.36-1.51-.73-1.85,2.54-1.39,4.17-3.31,5.95-5.63,1.38-1.78,1.96,1.65,2.24,3.2Z"/>
  <path class="cls-1" d="M88.8,89.11c-1.58-.19-3.67.4-4-1.82-.29-1.94-.09-3.99.15-5.97.11-.87,1.63-1.28,1.81-.64.93,3.19,4.17,4.26,5.67,6.45,1.34,1.95-2.15,1.6-3.63,1.98Z"/>
  <path class="cls-1" d="M77.97,113.23c-4.07.51-4.82-1.57-4.61-4.34.11-1.46.07-4.46,1.63-3.63,2.36,1.27,4,4.14,5.76,6.33,1.14,1.42-2.09,1.31-2.78,1.64Z"/>
  <path class="cls-1" d="M98.69,84.72c-.25,1.23.57,4.23-1.89,3.71-2.6-.55-1.36-4.59-3.54-6.49-1.05-.91.77-1.86,2.03-1.97,3.32-.27,3.51,1.95,3.4,4.74Z"/>
  <path class="cls-1" d="M69.96,107.72c-.09,1.57.25,3.84-1.91,3.75-2.22-.1-1.57-2.45-1.55-3.94.01-1.46-.6-3.83,1.76-3.73,2.18.1,1.54,2.4,1.71,3.92Z"/>
  <path class="cls-1" d="M116.62,100.63c-.06,1.21-.18,3.03-1.52,2.8-2.19-.37-3.58-2.48-4.28-4.38-.53-1.45,1.33-1.56,2.51-1.63,2.25-.13,3.4.89,3.29,3.21Z"/>
</svg>